<svg width="1005" height="1002" viewBox="0 0 1005 1002" fill="none" xmlns="http://www.w3.org/2000/svg">
<circle cx="502" cy="502" r="481" fill="#40A578"/>
<circle cx="502" cy="502" r="458" fill="white"/>
<rect x="116.544" y="176.23" width="88" height="16" transform="rotate(45 116.544 176.23)" fill="white"/>
<rect x="907.698" y="178.664" width="88" height="16" transform="rotate(120 907.698 178.664)" fill="white"/>
<rect x="509.77" y="913.77" width="88" height="16" transform="rotate(90 509.77 913.77)" fill="white"/>
<rect x="510" width="88" height="16" transform="rotate(90 510 0)" fill="white"/>
<rect x="916.105" y="493.928" width="88" height="16" fill="white"/>
<rect y="484" width="88" height="16" fill="white"/>
<path d="M94.4 540L118.72 446.56H134.208L158.4 540H146.752L140.608 515.168H112.32L106.176 540H94.4ZM114.624 505.44H138.176L131.008 476.64C129.643 471.179 128.576 466.613 127.808 462.944C127.04 459.275 126.571 456.885 126.4 455.776C126.229 456.885 125.76 459.275 124.992 462.944C124.224 466.613 123.157 471.136 121.792 476.512L114.624 505.44ZM203.662 541.28C198.03 541.28 193.123 540.213 188.942 538.08C184.846 535.947 181.646 532.875 179.342 528.864C177.123 524.768 176.014 519.947 176.014 514.4V472.16C176.014 466.528 177.123 461.707 179.342 457.696C181.646 453.685 184.846 450.613 188.942 448.48C193.123 446.347 198.03 445.28 203.662 445.28C209.294 445.28 214.158 446.389 218.254 448.608C222.35 450.741 225.507 453.813 227.726 457.824C229.945 461.835 231.054 466.613 231.054 472.16H219.534C219.534 466.869 218.126 462.816 215.31 460C212.579 457.099 208.697 455.648 203.662 455.648C198.627 455.648 194.659 457.056 191.758 459.872C188.942 462.688 187.534 466.741 187.534 472.032V514.4C187.534 519.691 188.942 523.787 191.758 526.688C194.659 529.589 198.627 531.04 203.662 531.04C208.697 531.04 212.579 529.589 215.31 526.688C218.126 523.787 219.534 519.691 219.534 514.4V502.88H200.59V492.384H231.054V514.4C231.054 519.861 229.945 524.64 227.726 528.736C225.507 532.747 222.35 535.861 218.254 538.08C214.158 540.213 209.294 541.28 203.662 541.28ZM253.276 540V446.56H282.204C287.751 446.56 292.615 447.712 296.796 450.016C300.977 452.235 304.22 455.349 306.524 459.36C308.828 463.371 309.98 468.064 309.98 473.44C309.98 479.755 308.316 485.173 304.988 489.696C301.745 494.219 297.308 497.333 291.676 499.04L311.26 540H297.692L279.772 500.32H264.796V540H253.276ZM264.796 489.952H282.204C286.983 489.952 290.823 488.459 293.724 485.472C296.625 482.4 298.076 478.389 298.076 473.44C298.076 468.405 296.625 464.395 293.724 461.408C290.823 458.421 286.983 456.928 282.204 456.928H264.796V489.952ZM331.69 540V529.504H350.762V457.056H331.69V446.56H381.61V457.056H362.538V529.504H381.61V540H331.69ZM433.912 541.28C428.28 541.28 423.373 540.213 419.192 538.08C415.096 535.947 411.896 532.875 409.592 528.864C407.373 524.768 406.264 519.947 406.264 514.4V472.16C406.264 466.528 407.373 461.707 409.592 457.696C411.896 453.685 415.096 450.613 419.192 448.48C423.373 446.347 428.28 445.28 433.912 445.28C439.544 445.28 444.408 446.389 448.504 448.608C452.6 450.741 455.757 453.813 457.976 457.824C460.195 461.835 461.304 466.613 461.304 472.16H449.784C449.784 466.869 448.376 462.816 445.56 460C442.829 457.099 438.947 455.648 433.912 455.648C428.877 455.648 424.909 457.056 422.008 459.872C419.192 462.688 417.784 466.741 417.784 472.032V514.4C417.784 519.691 419.192 523.787 422.008 526.688C424.909 529.504 428.877 530.912 433.912 530.912C438.947 530.912 442.829 529.504 445.56 526.688C448.376 523.787 449.784 519.691 449.784 514.4H461.304C461.304 519.861 460.195 524.64 457.976 528.736C455.757 532.747 452.6 535.861 448.504 538.08C444.408 540.213 439.544 541.28 433.912 541.28ZM510.15 541.28C504.518 541.28 499.654 540.213 495.558 538.08C491.547 535.947 488.433 532.875 486.214 528.864C484.081 524.768 483.014 519.947 483.014 514.4V472.16C483.014 466.528 484.081 461.707 486.214 457.696C488.433 453.685 491.547 450.613 495.558 448.48C499.654 446.347 504.518 445.28 510.15 445.28C515.782 445.28 520.603 446.347 524.614 448.48C528.71 450.613 531.825 453.685 533.958 457.696C536.177 461.707 537.286 466.485 537.286 472.032V514.4C537.286 519.947 536.177 524.768 533.958 528.864C531.825 532.875 528.71 535.947 524.614 538.08C520.603 540.213 515.782 541.28 510.15 541.28ZM510.15 530.912C515.185 530.912 519.025 529.504 521.67 526.688C524.401 523.787 525.766 519.691 525.766 514.4V472.16C525.766 466.869 524.401 462.816 521.67 460C519.025 457.099 515.185 455.648 510.15 455.648C505.201 455.648 501.361 457.099 498.63 460C495.899 462.816 494.534 466.869 494.534 472.16V514.4C494.534 519.691 495.899 523.787 498.63 526.688C501.361 529.504 505.201 530.912 510.15 530.912ZM560.02 540V446.56H575.38L603.924 526.56C603.753 524.427 603.54 521.824 603.284 518.752C603.113 515.595 602.943 512.309 602.772 508.896C602.687 505.397 602.644 502.112 602.644 499.04V446.56H613.78V540H598.42L570.004 460C570.175 462.048 570.345 464.651 570.516 467.808C570.687 470.88 570.815 474.165 570.9 477.664C571.071 481.077 571.156 484.363 571.156 487.52V540H560.02ZM636.77 540V446.56H652.13L680.674 526.56C680.503 524.427 680.29 521.824 680.034 518.752C679.863 515.595 679.693 512.309 679.522 508.896C679.437 505.397 679.394 502.112 679.394 499.04V446.56H690.53V540H675.17L646.754 460C646.925 462.048 647.095 464.651 647.266 467.808C647.437 470.88 647.565 474.165 647.65 477.664C647.821 481.077 647.906 484.363 647.906 487.52V540H636.77ZM714.8 540V446.56H768.56V457.056H726.192V485.984H764.08V496.352H726.192V529.504H768.56V540H714.8ZM817.662 541.28C812.03 541.28 807.123 540.213 802.942 538.08C798.846 535.947 795.646 532.875 793.342 528.864C791.123 524.768 790.014 519.947 790.014 514.4V472.16C790.014 466.528 791.123 461.707 793.342 457.696C795.646 453.685 798.846 450.613 802.942 448.48C807.123 446.347 812.03 445.28 817.662 445.28C823.294 445.28 828.158 446.389 832.254 448.608C836.35 450.741 839.507 453.813 841.726 457.824C843.945 461.835 845.054 466.613 845.054 472.16H833.534C833.534 466.869 832.126 462.816 829.31 460C826.579 457.099 822.697 455.648 817.662 455.648C812.627 455.648 808.659 457.056 805.758 459.872C802.942 462.688 801.534 466.741 801.534 472.032V514.4C801.534 519.691 802.942 523.787 805.758 526.688C808.659 529.504 812.627 530.912 817.662 530.912C822.697 530.912 826.579 529.504 829.31 526.688C832.126 523.787 833.534 519.691 833.534 514.4H845.054C845.054 519.861 843.945 524.64 841.726 528.736C839.507 532.747 836.35 535.861 832.254 538.08C828.158 540.213 823.294 541.28 817.662 541.28ZM888.14 540V456.928H862.54V446.432H925.26V456.928H899.66V540H888.14Z" fill="#40A578"/>
</svg>
